<mxfile host="app.diagrams.net" modified="2022-03-25T13:53:22.428Z" agent="5.0 (Windows NT 10.0; Win64; x64) AppleWebKit/537.36 (KHTML, like Gecko) Chrome/97.0.4692.99 Safari/537.36 OPR/83.0.4254.70" etag="PSkeq1OFgoe4Yg9d8-vt" version="17.2.2" type="github" pages="3">
  <diagram id="C5RBs43oDa-KdzZeNtuy" name="Page-1">
    <mxGraphModel dx="997" dy="1709" grid="1" gridSize="10" guides="1" tooltips="1" connect="1" arrows="1" fold="1" page="1" pageScale="1" pageWidth="827" pageHeight="1169" math="0" shadow="0">
      <root>
        <mxCell id="WIyWlLk6GJQsqaUBKTNV-0" />
        <mxCell id="WIyWlLk6GJQsqaUBKTNV-1" parent="WIyWlLk6GJQsqaUBKTNV-0" />
        <mxCell id="vM11jCXPDJ7jfzlutHVa-15" style="edgeStyle=orthogonalEdgeStyle;rounded=0;orthogonalLoop=1;jettySize=auto;html=1;exitX=0.5;exitY=1;exitDx=0;exitDy=0;" parent="WIyWlLk6GJQsqaUBKTNV-1" source="vM11jCXPDJ7jfzlutHVa-5" target="vM11jCXPDJ7jfzlutHVa-9" edge="1">
          <mxGeometry relative="1" as="geometry" />
        </mxCell>
        <mxCell id="vM11jCXPDJ7jfzlutHVa-98" style="edgeStyle=orthogonalEdgeStyle;rounded=0;orthogonalLoop=1;jettySize=auto;html=1;exitX=1;exitY=0.5;exitDx=0;exitDy=0;" parent="WIyWlLk6GJQsqaUBKTNV-1" source="vM11jCXPDJ7jfzlutHVa-5" edge="1">
          <mxGeometry relative="1" as="geometry">
            <mxPoint x="190" y="150" as="targetPoint" />
            <Array as="points">
              <mxPoint x="290" y="200" />
              <mxPoint x="290" y="150" />
            </Array>
          </mxGeometry>
        </mxCell>
        <mxCell id="vM11jCXPDJ7jfzlutHVa-5" value="enter table number" style="shape=parallelogram;perimeter=parallelogramPerimeter;whiteSpace=wrap;html=1;fixedSize=1;" parent="WIyWlLk6GJQsqaUBKTNV-1" vertex="1">
          <mxGeometry x="134" y="170" width="120" height="60" as="geometry" />
        </mxCell>
        <mxCell id="vM11jCXPDJ7jfzlutHVa-95" style="edgeStyle=orthogonalEdgeStyle;rounded=0;orthogonalLoop=1;jettySize=auto;html=1;exitX=0.5;exitY=1;exitDx=0;exitDy=0;entryX=0.5;entryY=0;entryDx=0;entryDy=0;" parent="WIyWlLk6GJQsqaUBKTNV-1" source="vM11jCXPDJ7jfzlutHVa-8" target="vM11jCXPDJ7jfzlutHVa-94" edge="1">
          <mxGeometry relative="1" as="geometry" />
        </mxCell>
        <mxCell id="vM11jCXPDJ7jfzlutHVa-8" value="customer_login" style="shape=process;whiteSpace=wrap;html=1;backgroundOutline=1;" parent="WIyWlLk6GJQsqaUBKTNV-1" vertex="1">
          <mxGeometry x="134" y="-90" width="120" height="60" as="geometry" />
        </mxCell>
        <mxCell id="vM11jCXPDJ7jfzlutHVa-21" style="edgeStyle=orthogonalEdgeStyle;rounded=0;orthogonalLoop=1;jettySize=auto;html=1;exitX=0;exitY=0.5;exitDx=0;exitDy=0;entryX=0;entryY=0.5;entryDx=0;entryDy=0;" parent="WIyWlLk6GJQsqaUBKTNV-1" source="vM11jCXPDJ7jfzlutHVa-9" target="vM11jCXPDJ7jfzlutHVa-5" edge="1">
          <mxGeometry relative="1" as="geometry">
            <Array as="points">
              <mxPoint x="90" y="350" />
              <mxPoint x="90" y="200" />
            </Array>
          </mxGeometry>
        </mxCell>
        <mxCell id="vM11jCXPDJ7jfzlutHVa-53" style="edgeStyle=orthogonalEdgeStyle;rounded=0;orthogonalLoop=1;jettySize=auto;html=1;entryX=0.5;entryY=0;entryDx=0;entryDy=0;" parent="WIyWlLk6GJQsqaUBKTNV-1" source="vM11jCXPDJ7jfzlutHVa-9" target="vM11jCXPDJ7jfzlutHVa-48" edge="1">
          <mxGeometry relative="1" as="geometry" />
        </mxCell>
        <mxCell id="vM11jCXPDJ7jfzlutHVa-9" value="check table&lt;br&gt;availability" style="shape=hexagon;perimeter=hexagonPerimeter2;whiteSpace=wrap;html=1;fixedSize=1;" parent="WIyWlLk6GJQsqaUBKTNV-1" vertex="1">
          <mxGeometry x="134" y="310" width="120" height="80" as="geometry" />
        </mxCell>
        <mxCell id="vM11jCXPDJ7jfzlutHVa-12" value="error" style="text;html=1;align=center;verticalAlign=middle;resizable=0;points=[];autosize=1;strokeColor=none;fillColor=none;" parent="WIyWlLk6GJQsqaUBKTNV-1" vertex="1">
          <mxGeometry x="240" y="200" width="40" height="20" as="geometry" />
        </mxCell>
        <mxCell id="vM11jCXPDJ7jfzlutHVa-27" style="edgeStyle=orthogonalEdgeStyle;rounded=0;orthogonalLoop=1;jettySize=auto;html=1;" parent="WIyWlLk6GJQsqaUBKTNV-1" source="vM11jCXPDJ7jfzlutHVa-48" target="vM11jCXPDJ7jfzlutHVa-26" edge="1">
          <mxGeometry relative="1" as="geometry">
            <mxPoint x="244" y="460" as="sourcePoint" />
          </mxGeometry>
        </mxCell>
        <mxCell id="vM11jCXPDJ7jfzlutHVa-18" value="check" style="text;html=1;align=center;verticalAlign=middle;resizable=0;points=[];autosize=1;strokeColor=none;fillColor=none;rotation=90;" parent="WIyWlLk6GJQsqaUBKTNV-1" vertex="1">
          <mxGeometry x="180" y="260" width="50" height="20" as="geometry" />
        </mxCell>
        <mxCell id="vM11jCXPDJ7jfzlutHVa-50" value="" style="edgeStyle=orthogonalEdgeStyle;rounded=0;orthogonalLoop=1;jettySize=auto;html=1;" parent="WIyWlLk6GJQsqaUBKTNV-1" source="vM11jCXPDJ7jfzlutHVa-20" target="vM11jCXPDJ7jfzlutHVa-48" edge="1">
          <mxGeometry relative="1" as="geometry" />
        </mxCell>
        <mxCell id="vM11jCXPDJ7jfzlutHVa-52" value="" style="edgeStyle=orthogonalEdgeStyle;rounded=0;orthogonalLoop=1;jettySize=auto;html=1;" parent="WIyWlLk6GJQsqaUBKTNV-1" source="vM11jCXPDJ7jfzlutHVa-20" target="vM11jCXPDJ7jfzlutHVa-48" edge="1">
          <mxGeometry relative="1" as="geometry" />
        </mxCell>
        <mxCell id="vM11jCXPDJ7jfzlutHVa-20" value="true" style="text;html=1;align=center;verticalAlign=middle;resizable=0;points=[];autosize=1;strokeColor=none;fillColor=none;rotation=90;" parent="WIyWlLk6GJQsqaUBKTNV-1" vertex="1">
          <mxGeometry x="185" y="400" width="40" height="20" as="geometry" />
        </mxCell>
        <mxCell id="vM11jCXPDJ7jfzlutHVa-22" value="false" style="text;html=1;align=center;verticalAlign=middle;resizable=0;points=[];autosize=1;strokeColor=none;fillColor=none;rotation=0;" parent="WIyWlLk6GJQsqaUBKTNV-1" vertex="1">
          <mxGeometry x="94" y="330" width="40" height="20" as="geometry" />
        </mxCell>
        <mxCell id="vM11jCXPDJ7jfzlutHVa-55" style="edgeStyle=orthogonalEdgeStyle;rounded=0;orthogonalLoop=1;jettySize=auto;html=1;exitX=1;exitY=0.5;exitDx=0;exitDy=0;entryX=0;entryY=0.5;entryDx=0;entryDy=0;" parent="WIyWlLk6GJQsqaUBKTNV-1" source="vM11jCXPDJ7jfzlutHVa-26" target="vM11jCXPDJ7jfzlutHVa-59" edge="1">
          <mxGeometry relative="1" as="geometry">
            <mxPoint x="580" y="460" as="targetPoint" />
          </mxGeometry>
        </mxCell>
        <mxCell id="vM11jCXPDJ7jfzlutHVa-88" style="edgeStyle=orthogonalEdgeStyle;rounded=0;orthogonalLoop=1;jettySize=auto;html=1;exitX=0.25;exitY=0;exitDx=0;exitDy=0;" parent="WIyWlLk6GJQsqaUBKTNV-1" source="vM11jCXPDJ7jfzlutHVa-26" edge="1">
          <mxGeometry relative="1" as="geometry">
            <mxPoint x="290" y="460" as="targetPoint" />
            <Array as="points">
              <mxPoint x="370" y="410" />
              <mxPoint x="290" y="410" />
              <mxPoint x="290" y="450" />
            </Array>
          </mxGeometry>
        </mxCell>
        <mxCell id="vM11jCXPDJ7jfzlutHVa-26" value="select food/cancel order/cart" style="shape=parallelogram;perimeter=parallelogramPerimeter;whiteSpace=wrap;html=1;fixedSize=1;" parent="WIyWlLk6GJQsqaUBKTNV-1" vertex="1">
          <mxGeometry x="320" y="430" width="200" height="60" as="geometry" />
        </mxCell>
        <mxCell id="vM11jCXPDJ7jfzlutHVa-30" value="cancel" style="text;html=1;align=center;verticalAlign=middle;resizable=0;points=[];autosize=1;strokeColor=none;fillColor=none;rotation=-92;" parent="WIyWlLk6GJQsqaUBKTNV-1" vertex="1">
          <mxGeometry x="540" y="410" width="50" height="20" as="geometry" />
        </mxCell>
        <mxCell id="vM11jCXPDJ7jfzlutHVa-33" style="rounded=0;orthogonalLoop=1;jettySize=auto;html=1;exitX=0;exitY=0.5;exitDx=0;exitDy=0;entryX=0.83;entryY=0.033;entryDx=0;entryDy=0;entryPerimeter=0;" parent="WIyWlLk6GJQsqaUBKTNV-1" source="vM11jCXPDJ7jfzlutHVa-31" target="vM11jCXPDJ7jfzlutHVa-48" edge="1">
          <mxGeometry relative="1" as="geometry">
            <mxPoint x="224" y="430" as="targetPoint" />
          </mxGeometry>
        </mxCell>
        <mxCell id="vM11jCXPDJ7jfzlutHVa-38" style="edgeStyle=orthogonalEdgeStyle;rounded=0;orthogonalLoop=1;jettySize=auto;html=1;exitX=0.5;exitY=0;exitDx=0;exitDy=0;entryX=1;entryY=0.5;entryDx=0;entryDy=0;" parent="WIyWlLk6GJQsqaUBKTNV-1" source="vM11jCXPDJ7jfzlutHVa-31" target="vM11jCXPDJ7jfzlutHVa-8" edge="1">
          <mxGeometry relative="1" as="geometry" />
        </mxCell>
        <mxCell id="vM11jCXPDJ7jfzlutHVa-42" style="edgeStyle=orthogonalEdgeStyle;rounded=0;orthogonalLoop=1;jettySize=auto;html=1;exitX=1;exitY=0.5;exitDx=0;exitDy=0;" parent="WIyWlLk6GJQsqaUBKTNV-1" source="vM11jCXPDJ7jfzlutHVa-31" edge="1">
          <mxGeometry relative="1" as="geometry">
            <mxPoint x="430" y="330" as="targetPoint" />
            <Array as="points">
              <mxPoint x="530" y="280" />
              <mxPoint x="530" y="330" />
            </Array>
          </mxGeometry>
        </mxCell>
        <mxCell id="vM11jCXPDJ7jfzlutHVa-31" value="confirmation_cancel" style="shape=parallelogram;perimeter=parallelogramPerimeter;whiteSpace=wrap;html=1;fixedSize=1;" parent="WIyWlLk6GJQsqaUBKTNV-1" vertex="1">
          <mxGeometry x="360" y="250" width="140" height="60" as="geometry" />
        </mxCell>
        <mxCell id="vM11jCXPDJ7jfzlutHVa-34" value="false" style="text;html=1;align=center;verticalAlign=middle;resizable=0;points=[];autosize=1;strokeColor=none;fillColor=none;rotation=-39;" parent="WIyWlLk6GJQsqaUBKTNV-1" vertex="1">
          <mxGeometry x="330" y="270" width="40" height="20" as="geometry" />
        </mxCell>
        <mxCell id="vM11jCXPDJ7jfzlutHVa-35" value="true" style="text;html=1;align=center;verticalAlign=middle;resizable=0;points=[];autosize=1;strokeColor=none;fillColor=none;rotation=-92;" parent="WIyWlLk6GJQsqaUBKTNV-1" vertex="1">
          <mxGeometry x="394" y="220" width="40" height="20" as="geometry" />
        </mxCell>
        <mxCell id="vM11jCXPDJ7jfzlutHVa-41" value="error" style="text;html=1;align=center;verticalAlign=middle;resizable=0;points=[];autosize=1;strokeColor=none;fillColor=none;" parent="WIyWlLk6GJQsqaUBKTNV-1" vertex="1">
          <mxGeometry x="490" y="260" width="40" height="20" as="geometry" />
        </mxCell>
        <mxCell id="vM11jCXPDJ7jfzlutHVa-47" style="edgeStyle=orthogonalEdgeStyle;rounded=0;orthogonalLoop=1;jettySize=auto;html=1;exitX=0;exitY=0.25;exitDx=0;exitDy=0;" parent="WIyWlLk6GJQsqaUBKTNV-1" source="vM11jCXPDJ7jfzlutHVa-54" target="vM11jCXPDJ7jfzlutHVa-48" edge="1">
          <mxGeometry relative="1" as="geometry">
            <mxPoint x="329" y="585" as="sourcePoint" />
            <mxPoint x="194" y="490" as="targetPoint" />
          </mxGeometry>
        </mxCell>
        <mxCell id="vM11jCXPDJ7jfzlutHVa-46" value="select" style="text;html=1;align=center;verticalAlign=middle;resizable=0;points=[];autosize=1;strokeColor=none;fillColor=none;rotation=90;" parent="WIyWlLk6GJQsqaUBKTNV-1" vertex="1">
          <mxGeometry x="570" y="480" width="50" height="20" as="geometry" />
        </mxCell>
        <mxCell id="vM11jCXPDJ7jfzlutHVa-48" value="read_menu" style="shape=process;whiteSpace=wrap;html=1;backgroundOutline=1;" parent="WIyWlLk6GJQsqaUBKTNV-1" vertex="1">
          <mxGeometry x="134" y="430" width="120" height="60" as="geometry" />
        </mxCell>
        <mxCell id="vM11jCXPDJ7jfzlutHVa-54" value="food added into cart list" style="rounded=0;whiteSpace=wrap;html=1;" parent="WIyWlLk6GJQsqaUBKTNV-1" vertex="1">
          <mxGeometry x="360" y="570" width="120" height="60" as="geometry" />
        </mxCell>
        <mxCell id="vM11jCXPDJ7jfzlutHVa-63" value="" style="edgeStyle=orthogonalEdgeStyle;rounded=0;orthogonalLoop=1;jettySize=auto;html=1;" parent="WIyWlLk6GJQsqaUBKTNV-1" source="vM11jCXPDJ7jfzlutHVa-59" target="vM11jCXPDJ7jfzlutHVa-62" edge="1">
          <mxGeometry relative="1" as="geometry" />
        </mxCell>
        <mxCell id="vM11jCXPDJ7jfzlutHVa-59" value="read_cart" style="shape=process;whiteSpace=wrap;html=1;backgroundOutline=1;" parent="WIyWlLk6GJQsqaUBKTNV-1" vertex="1">
          <mxGeometry x="640" y="430" width="120" height="60" as="geometry" />
        </mxCell>
        <mxCell id="vM11jCXPDJ7jfzlutHVa-67" value="" style="edgeStyle=orthogonalEdgeStyle;rounded=0;orthogonalLoop=1;jettySize=auto;html=1;" parent="WIyWlLk6GJQsqaUBKTNV-1" target="vM11jCXPDJ7jfzlutHVa-66" edge="1">
          <mxGeometry relative="1" as="geometry">
            <mxPoint x="980" y="460" as="sourcePoint" />
            <Array as="points">
              <mxPoint x="1020" y="460" />
              <mxPoint x="1020" y="600" />
            </Array>
          </mxGeometry>
        </mxCell>
        <mxCell id="vM11jCXPDJ7jfzlutHVa-74" style="edgeStyle=orthogonalEdgeStyle;rounded=0;orthogonalLoop=1;jettySize=auto;html=1;exitX=1;exitY=0.5;exitDx=0;exitDy=0;entryX=0;entryY=0.5;entryDx=0;entryDy=0;" parent="WIyWlLk6GJQsqaUBKTNV-1" source="vM11jCXPDJ7jfzlutHVa-62" target="vM11jCXPDJ7jfzlutHVa-48" edge="1">
          <mxGeometry relative="1" as="geometry">
            <mxPoint x="130" y="460" as="targetPoint" />
            <mxPoint x="970" y="740" as="sourcePoint" />
            <Array as="points">
              <mxPoint x="1070" y="460" />
              <mxPoint x="1070" y="660" />
              <mxPoint x="100" y="660" />
              <mxPoint x="100" y="460" />
            </Array>
          </mxGeometry>
        </mxCell>
        <mxCell id="vM11jCXPDJ7jfzlutHVa-79" style="edgeStyle=orthogonalEdgeStyle;rounded=0;orthogonalLoop=1;jettySize=auto;html=1;entryX=0.5;entryY=1;entryDx=0;entryDy=0;" parent="WIyWlLk6GJQsqaUBKTNV-1" target="vM11jCXPDJ7jfzlutHVa-78" edge="1">
          <mxGeometry relative="1" as="geometry">
            <mxPoint x="980" y="460" as="sourcePoint" />
            <Array as="points">
              <mxPoint x="1020" y="460" />
              <mxPoint x="1020" y="375" />
              <mxPoint x="900" y="375" />
            </Array>
          </mxGeometry>
        </mxCell>
        <mxCell id="vM11jCXPDJ7jfzlutHVa-91" style="edgeStyle=orthogonalEdgeStyle;rounded=0;orthogonalLoop=1;jettySize=auto;html=1;exitX=0.25;exitY=0;exitDx=0;exitDy=0;" parent="WIyWlLk6GJQsqaUBKTNV-1" source="vM11jCXPDJ7jfzlutHVa-62" edge="1">
          <mxGeometry relative="1" as="geometry">
            <mxPoint x="780" y="460" as="targetPoint" />
            <Array as="points">
              <mxPoint x="855" y="410" />
              <mxPoint x="780" y="410" />
              <mxPoint x="780" y="450" />
            </Array>
          </mxGeometry>
        </mxCell>
        <mxCell id="vM11jCXPDJ7jfzlutHVa-62" value="input confirm/remove/back" style="shape=parallelogram;perimeter=parallelogramPerimeter;whiteSpace=wrap;html=1;fixedSize=1;" parent="WIyWlLk6GJQsqaUBKTNV-1" vertex="1">
          <mxGeometry x="810" y="430" width="180" height="60" as="geometry" />
        </mxCell>
        <mxCell id="vM11jCXPDJ7jfzlutHVa-68" style="edgeStyle=orthogonalEdgeStyle;rounded=0;orthogonalLoop=1;jettySize=auto;html=1;entryX=0.5;entryY=1;entryDx=0;entryDy=0;" parent="WIyWlLk6GJQsqaUBKTNV-1" source="vM11jCXPDJ7jfzlutHVa-66" target="vM11jCXPDJ7jfzlutHVa-59" edge="1">
          <mxGeometry relative="1" as="geometry" />
        </mxCell>
        <mxCell id="vM11jCXPDJ7jfzlutHVa-66" value="remove food from cart list&amp;nbsp;" style="whiteSpace=wrap;html=1;" parent="WIyWlLk6GJQsqaUBKTNV-1" vertex="1">
          <mxGeometry x="840" y="570" width="120" height="60" as="geometry" />
        </mxCell>
        <mxCell id="vM11jCXPDJ7jfzlutHVa-69" value="remove" style="text;html=1;align=center;verticalAlign=middle;resizable=0;points=[];autosize=1;strokeColor=none;fillColor=none;rotation=90;" parent="WIyWlLk6GJQsqaUBKTNV-1" vertex="1">
          <mxGeometry x="1000" y="480" width="60" height="20" as="geometry" />
        </mxCell>
        <mxCell id="vM11jCXPDJ7jfzlutHVa-70" value="cart" style="text;html=1;align=center;verticalAlign=middle;resizable=0;points=[];autosize=1;strokeColor=none;fillColor=none;rotation=0;" parent="WIyWlLk6GJQsqaUBKTNV-1" vertex="1">
          <mxGeometry x="590" y="440" width="40" height="20" as="geometry" />
        </mxCell>
        <mxCell id="vM11jCXPDJ7jfzlutHVa-71" value="confirm" style="text;html=1;align=center;verticalAlign=middle;resizable=0;points=[];autosize=1;strokeColor=none;fillColor=none;rotation=-92;" parent="WIyWlLk6GJQsqaUBKTNV-1" vertex="1">
          <mxGeometry x="980" y="420" width="50" height="20" as="geometry" />
        </mxCell>
        <mxCell id="vM11jCXPDJ7jfzlutHVa-72" value="back" style="text;html=1;align=center;verticalAlign=middle;resizable=0;points=[];autosize=1;strokeColor=none;fillColor=none;rotation=0;" parent="WIyWlLk6GJQsqaUBKTNV-1" vertex="1">
          <mxGeometry x="1030" y="440" width="40" height="20" as="geometry" />
        </mxCell>
        <mxCell id="vM11jCXPDJ7jfzlutHVa-78" value="display order and total cost" style="shape=parallelogram;perimeter=parallelogramPerimeter;whiteSpace=wrap;html=1;fixedSize=1;" parent="WIyWlLk6GJQsqaUBKTNV-1" vertex="1">
          <mxGeometry x="810" y="230" width="180" height="60" as="geometry" />
        </mxCell>
        <mxCell id="vM11jCXPDJ7jfzlutHVa-83" style="edgeStyle=orthogonalEdgeStyle;rounded=0;orthogonalLoop=1;jettySize=auto;html=1;entryX=0.5;entryY=0;entryDx=0;entryDy=0;" parent="WIyWlLk6GJQsqaUBKTNV-1" target="vM11jCXPDJ7jfzlutHVa-54" edge="1">
          <mxGeometry relative="1" as="geometry">
            <mxPoint x="590" y="480" as="targetPoint" />
            <mxPoint x="510" y="460" as="sourcePoint" />
            <Array as="points">
              <mxPoint x="580" y="460" />
              <mxPoint x="580" y="550" />
              <mxPoint x="420" y="550" />
            </Array>
          </mxGeometry>
        </mxCell>
        <mxCell id="vM11jCXPDJ7jfzlutHVa-84" style="edgeStyle=orthogonalEdgeStyle;rounded=0;orthogonalLoop=1;jettySize=auto;html=1;entryX=0.5;entryY=1;entryDx=0;entryDy=0;" parent="WIyWlLk6GJQsqaUBKTNV-1" target="vM11jCXPDJ7jfzlutHVa-31" edge="1">
          <mxGeometry relative="1" as="geometry">
            <mxPoint x="600" y="490" as="targetPoint" />
            <mxPoint x="510" y="460" as="sourcePoint" />
            <Array as="points">
              <mxPoint x="580" y="460" />
              <mxPoint x="580" y="350" />
              <mxPoint x="430" y="350" />
            </Array>
          </mxGeometry>
        </mxCell>
        <mxCell id="vM11jCXPDJ7jfzlutHVa-89" value="error" style="text;html=1;align=center;verticalAlign=middle;resizable=0;points=[];autosize=1;strokeColor=none;fillColor=none;" parent="WIyWlLk6GJQsqaUBKTNV-1" vertex="1">
          <mxGeometry x="330" y="390" width="40" height="20" as="geometry" />
        </mxCell>
        <mxCell id="vM11jCXPDJ7jfzlutHVa-92" value="error" style="text;html=1;align=center;verticalAlign=middle;resizable=0;points=[];autosize=1;strokeColor=none;fillColor=none;" parent="WIyWlLk6GJQsqaUBKTNV-1" vertex="1">
          <mxGeometry x="810" y="390" width="40" height="20" as="geometry" />
        </mxCell>
        <mxCell id="vM11jCXPDJ7jfzlutHVa-97" style="edgeStyle=orthogonalEdgeStyle;rounded=0;orthogonalLoop=1;jettySize=auto;html=1;entryX=0.5;entryY=0;entryDx=0;entryDy=0;" parent="WIyWlLk6GJQsqaUBKTNV-1" source="vM11jCXPDJ7jfzlutHVa-94" target="vM11jCXPDJ7jfzlutHVa-5" edge="1">
          <mxGeometry relative="1" as="geometry" />
        </mxCell>
        <mxCell id="vM11jCXPDJ7jfzlutHVa-94" value="display welcome/guidance" style="shape=parallelogram;perimeter=parallelogramPerimeter;whiteSpace=wrap;html=1;fixedSize=1;" parent="WIyWlLk6GJQsqaUBKTNV-1" vertex="1">
          <mxGeometry x="104" y="20" width="180" height="60" as="geometry" />
        </mxCell>
      </root>
    </mxGraphModel>
  </diagram>
  <diagram id="wGJ8oZR65npoBaKy9jtu" name="Page-2">
    <mxGraphModel dx="2023" dy="635" grid="1" gridSize="10" guides="1" tooltips="1" connect="1" arrows="1" fold="1" page="1" pageScale="1" pageWidth="850" pageHeight="1100" math="0" shadow="0">
      <root>
        <mxCell id="0" />
        <mxCell id="1" parent="0" />
        <mxCell id="IC5-iPhKqI-BuxS_Gj4o-3" style="edgeStyle=orthogonalEdgeStyle;rounded=0;orthogonalLoop=1;jettySize=auto;html=1;exitX=0.5;exitY=1;exitDx=0;exitDy=0;entryX=0.5;entryY=0;entryDx=0;entryDy=0;" edge="1" parent="1" source="C4wjGPQ94aS8Cd51sgXs-1" target="C4wjGPQ94aS8Cd51sgXs-2">
          <mxGeometry relative="1" as="geometry" />
        </mxCell>
        <mxCell id="C4wjGPQ94aS8Cd51sgXs-1" value="customer_login" style="rounded=1;whiteSpace=wrap;html=1;" vertex="1" parent="1">
          <mxGeometry x="30" y="20" width="120" height="60" as="geometry" />
        </mxCell>
        <mxCell id="IC5-iPhKqI-BuxS_Gj4o-4" style="edgeStyle=orthogonalEdgeStyle;rounded=0;orthogonalLoop=1;jettySize=auto;html=1;exitX=0.5;exitY=1;exitDx=0;exitDy=0;entryX=0.5;entryY=0;entryDx=0;entryDy=0;" edge="1" parent="1" source="C4wjGPQ94aS8Cd51sgXs-2" target="C4wjGPQ94aS8Cd51sgXs-3">
          <mxGeometry relative="1" as="geometry" />
        </mxCell>
        <mxCell id="C4wjGPQ94aS8Cd51sgXs-2" value="display welcome/guidance" style="shape=parallelogram;perimeter=parallelogramPerimeter;whiteSpace=wrap;html=1;fixedSize=1;" vertex="1" parent="1">
          <mxGeometry x="20" y="130" width="140" height="60" as="geometry" />
        </mxCell>
        <mxCell id="0yLy5xC8TKGSPIePNKLh-45" style="edgeStyle=orthogonalEdgeStyle;rounded=0;orthogonalLoop=1;jettySize=auto;html=1;entryX=0.5;entryY=0;entryDx=0;entryDy=0;" edge="1" parent="1" source="C4wjGPQ94aS8Cd51sgXs-3" target="0yLy5xC8TKGSPIePNKLh-43">
          <mxGeometry relative="1" as="geometry" />
        </mxCell>
        <mxCell id="C4wjGPQ94aS8Cd51sgXs-3" value="cin &amp;gt;&amp;gt; table_number" style="shape=parallelogram;perimeter=parallelogramPerimeter;whiteSpace=wrap;html=1;fixedSize=1;" vertex="1" parent="1">
          <mxGeometry x="20" y="240" width="140" height="60" as="geometry" />
        </mxCell>
        <mxCell id="0yLy5xC8TKGSPIePNKLh-28" style="edgeStyle=orthogonalEdgeStyle;rounded=0;orthogonalLoop=1;jettySize=auto;html=1;exitX=0.5;exitY=1;exitDx=0;exitDy=0;entryX=0.5;entryY=0;entryDx=0;entryDy=0;" edge="1" parent="1" source="nyRx-r4JQdV5yb0o4WZx-1" target="IC5-iPhKqI-BuxS_Gj4o-2">
          <mxGeometry relative="1" as="geometry" />
        </mxCell>
        <mxCell id="0yLy5xC8TKGSPIePNKLh-29" style="edgeStyle=orthogonalEdgeStyle;rounded=0;orthogonalLoop=1;jettySize=auto;html=1;exitX=1;exitY=0.5;exitDx=0;exitDy=0;entryX=0;entryY=0.5;entryDx=0;entryDy=0;" edge="1" parent="1" source="nyRx-r4JQdV5yb0o4WZx-1" target="tjxY9i4PyZSD-RfpCPBU-1">
          <mxGeometry relative="1" as="geometry">
            <mxPoint x="195" y="620" as="targetPoint" />
          </mxGeometry>
        </mxCell>
        <mxCell id="nyRx-r4JQdV5yb0o4WZx-1" value="while i &amp;lt;= 20(rows)" style="rhombus;whiteSpace=wrap;html=1;" vertex="1" parent="1">
          <mxGeometry x="37.5" y="580" width="105" height="80" as="geometry" />
        </mxCell>
        <mxCell id="0yLy5xC8TKGSPIePNKLh-27" style="edgeStyle=orthogonalEdgeStyle;rounded=0;orthogonalLoop=1;jettySize=auto;html=1;exitX=0.5;exitY=0;exitDx=0;exitDy=0;entryX=0;entryY=0.5;entryDx=0;entryDy=0;" edge="1" parent="1" source="0yLy5xC8TKGSPIePNKLh-4" target="nyRx-r4JQdV5yb0o4WZx-1">
          <mxGeometry relative="1" as="geometry" />
        </mxCell>
        <mxCell id="0yLy5xC8TKGSPIePNKLh-4" value="food --&amp;gt; menu[i]" style="rounded=0;whiteSpace=wrap;html=1;verticalAlign=middle;fontStyle=0" vertex="1" parent="1">
          <mxGeometry x="-150" y="700" width="120" height="60" as="geometry" />
        </mxCell>
        <mxCell id="0yLy5xC8TKGSPIePNKLh-26" style="edgeStyle=orthogonalEdgeStyle;rounded=0;orthogonalLoop=1;jettySize=auto;html=1;exitX=0;exitY=0.5;exitDx=0;exitDy=0;entryX=1;entryY=0.5;entryDx=0;entryDy=0;" edge="1" parent="1" source="IC5-iPhKqI-BuxS_Gj4o-2" target="0yLy5xC8TKGSPIePNKLh-4">
          <mxGeometry relative="1" as="geometry" />
        </mxCell>
        <mxCell id="IC5-iPhKqI-BuxS_Gj4o-2" value="read each food" style="shape=parallelogram;perimeter=parallelogramPerimeter;whiteSpace=wrap;html=1;fixedSize=1;" vertex="1" parent="1">
          <mxGeometry x="5" y="700" width="170" height="60" as="geometry" />
        </mxCell>
        <mxCell id="0yLy5xC8TKGSPIePNKLh-49" style="edgeStyle=orthogonalEdgeStyle;rounded=0;orthogonalLoop=1;jettySize=auto;html=1;entryX=0.5;entryY=0;entryDx=0;entryDy=0;" edge="1" parent="1" source="0yLy5xC8TKGSPIePNKLh-33" target="0yLy5xC8TKGSPIePNKLh-48">
          <mxGeometry relative="1" as="geometry" />
        </mxCell>
        <mxCell id="0yLy5xC8TKGSPIePNKLh-33" value="cout &amp;gt;&amp;gt;&amp;nbsp;&lt;br&gt;&amp;nbsp;1 - 20. select food&lt;br&gt;C. cancel order&lt;br&gt;D. confirm order" style="shape=parallelogram;perimeter=parallelogramPerimeter;whiteSpace=wrap;html=1;fixedSize=1;" vertex="1" parent="1">
          <mxGeometry x="293.75" y="690" width="192.5" height="60" as="geometry" />
        </mxCell>
        <mxCell id="GQ8tSEWkSFlXsJhe7DJv-1" style="edgeStyle=orthogonalEdgeStyle;rounded=0;orthogonalLoop=1;jettySize=auto;html=1;entryX=0.25;entryY=1;entryDx=0;entryDy=0;" edge="1" parent="1" source="0yLy5xC8TKGSPIePNKLh-38" target="tjxY9i4PyZSD-RfpCPBU-1">
          <mxGeometry relative="1" as="geometry" />
        </mxCell>
        <mxCell id="0yLy5xC8TKGSPIePNKLh-38" value="cart += menu[select]" style="rounded=0;whiteSpace=wrap;html=1;" vertex="1" parent="1">
          <mxGeometry x="150" y="890" width="130" height="60" as="geometry" />
        </mxCell>
        <mxCell id="0yLy5xC8TKGSPIePNKLh-46" style="edgeStyle=orthogonalEdgeStyle;rounded=0;orthogonalLoop=1;jettySize=auto;html=1;entryX=0.5;entryY=0;entryDx=0;entryDy=0;" edge="1" parent="1" source="0yLy5xC8TKGSPIePNKLh-43" target="0yLy5xC8TKGSPIePNKLh-44">
          <mxGeometry relative="1" as="geometry" />
        </mxCell>
        <mxCell id="0yLy5xC8TKGSPIePNKLh-43" value="declare cart[20] = { }" style="rounded=0;whiteSpace=wrap;html=1;" vertex="1" parent="1">
          <mxGeometry x="30" y="360" width="120" height="60" as="geometry" />
        </mxCell>
        <mxCell id="0yLy5xC8TKGSPIePNKLh-47" style="edgeStyle=orthogonalEdgeStyle;rounded=0;orthogonalLoop=1;jettySize=auto;html=1;entryX=0.5;entryY=0;entryDx=0;entryDy=0;" edge="1" parent="1" source="0yLy5xC8TKGSPIePNKLh-44" target="nyRx-r4JQdV5yb0o4WZx-1">
          <mxGeometry relative="1" as="geometry" />
        </mxCell>
        <mxCell id="0yLy5xC8TKGSPIePNKLh-44" value="cart[0] = table_number" style="rounded=0;whiteSpace=wrap;html=1;" vertex="1" parent="1">
          <mxGeometry x="30" y="470" width="120" height="60" as="geometry" />
        </mxCell>
        <mxCell id="Ne4AK7aCDiOl1bR36kbK-5" style="edgeStyle=orthogonalEdgeStyle;rounded=0;orthogonalLoop=1;jettySize=auto;html=1;exitX=0.5;exitY=1;exitDx=0;exitDy=0;entryX=0.5;entryY=0;entryDx=0;entryDy=0;" edge="1" parent="1" source="0yLy5xC8TKGSPIePNKLh-48" target="Ne4AK7aCDiOl1bR36kbK-4">
          <mxGeometry relative="1" as="geometry" />
        </mxCell>
        <mxCell id="0yLy5xC8TKGSPIePNKLh-48" value="cin &amp;gt;&amp;gt; select" style="shape=parallelogram;perimeter=parallelogramPerimeter;whiteSpace=wrap;html=1;fixedSize=1;" vertex="1" parent="1">
          <mxGeometry x="330" y="790" width="120" height="60" as="geometry" />
        </mxCell>
        <mxCell id="Ne4AK7aCDiOl1bR36kbK-19" style="edgeStyle=orthogonalEdgeStyle;rounded=0;orthogonalLoop=1;jettySize=auto;html=1;" edge="1" parent="1" source="Ne4AK7aCDiOl1bR36kbK-1" target="Ne4AK7aCDiOl1bR36kbK-20">
          <mxGeometry relative="1" as="geometry">
            <mxPoint x="560" y="720" as="targetPoint" />
          </mxGeometry>
        </mxCell>
        <mxCell id="Ne4AK7aCDiOl1bR36kbK-1" value="cin &amp;gt;&amp;gt; confirmation" style="shape=parallelogram;perimeter=parallelogramPerimeter;whiteSpace=wrap;html=1;fixedSize=1;" vertex="1" parent="1">
          <mxGeometry x="485" y="780" width="150" height="60" as="geometry" />
        </mxCell>
        <mxCell id="Ne4AK7aCDiOl1bR36kbK-9" style="edgeStyle=orthogonalEdgeStyle;rounded=0;orthogonalLoop=1;jettySize=auto;html=1;entryX=1;entryY=0.5;entryDx=0;entryDy=0;" edge="1" parent="1" source="Ne4AK7aCDiOl1bR36kbK-4" target="0yLy5xC8TKGSPIePNKLh-38">
          <mxGeometry relative="1" as="geometry" />
        </mxCell>
        <mxCell id="Ne4AK7aCDiOl1bR36kbK-13" style="edgeStyle=orthogonalEdgeStyle;rounded=0;orthogonalLoop=1;jettySize=auto;html=1;entryX=0;entryY=0.5;entryDx=0;entryDy=0;" edge="1" parent="1" source="Ne4AK7aCDiOl1bR36kbK-4" target="Ne4AK7aCDiOl1bR36kbK-6">
          <mxGeometry relative="1" as="geometry" />
        </mxCell>
        <mxCell id="Ne4AK7aCDiOl1bR36kbK-4" value="if &lt;br&gt;select == 1- 20" style="rhombus;whiteSpace=wrap;html=1;align=center;" vertex="1" parent="1">
          <mxGeometry x="330" y="880" width="120" height="80" as="geometry" />
        </mxCell>
        <mxCell id="Ne4AK7aCDiOl1bR36kbK-16" style="edgeStyle=orthogonalEdgeStyle;rounded=0;orthogonalLoop=1;jettySize=auto;html=1;exitX=0.5;exitY=0;exitDx=0;exitDy=0;entryX=0.5;entryY=1;entryDx=0;entryDy=0;" edge="1" parent="1" source="Ne4AK7aCDiOl1bR36kbK-6" target="Ne4AK7aCDiOl1bR36kbK-1">
          <mxGeometry relative="1" as="geometry" />
        </mxCell>
        <mxCell id="Ne4AK7aCDiOl1bR36kbK-18" style="edgeStyle=orthogonalEdgeStyle;rounded=0;orthogonalLoop=1;jettySize=auto;html=1;exitX=1;exitY=0.5;exitDx=0;exitDy=0;entryX=0;entryY=0.5;entryDx=0;entryDy=0;" edge="1" parent="1" source="Ne4AK7aCDiOl1bR36kbK-6" target="Ne4AK7aCDiOl1bR36kbK-17">
          <mxGeometry relative="1" as="geometry" />
        </mxCell>
        <mxCell id="Ne4AK7aCDiOl1bR36kbK-6" value="else if&lt;br&gt;select == C || select == c" style="rhombus;whiteSpace=wrap;html=1;" vertex="1" parent="1">
          <mxGeometry x="500" y="880" width="120" height="80" as="geometry" />
        </mxCell>
        <mxCell id="tjxY9i4PyZSD-RfpCPBU-3" style="edgeStyle=orthogonalEdgeStyle;rounded=0;orthogonalLoop=1;jettySize=auto;html=1;exitX=0.5;exitY=1;exitDx=0;exitDy=0;entryX=0.5;entryY=0;entryDx=0;entryDy=0;" edge="1" parent="1" source="Ne4AK7aCDiOl1bR36kbK-17" target="tjxY9i4PyZSD-RfpCPBU-2">
          <mxGeometry relative="1" as="geometry" />
        </mxCell>
        <mxCell id="Ne4AK7aCDiOl1bR36kbK-17" value="else if&lt;br&gt;select == D || select == d" style="rhombus;whiteSpace=wrap;html=1;" vertex="1" parent="1">
          <mxGeometry x="650" y="880" width="120" height="80" as="geometry" />
        </mxCell>
        <mxCell id="Ne4AK7aCDiOl1bR36kbK-21" style="edgeStyle=orthogonalEdgeStyle;rounded=0;orthogonalLoop=1;jettySize=auto;html=1;entryX=1;entryY=0.25;entryDx=0;entryDy=0;" edge="1" parent="1" source="Ne4AK7aCDiOl1bR36kbK-20" target="C4wjGPQ94aS8Cd51sgXs-1">
          <mxGeometry relative="1" as="geometry">
            <Array as="points">
              <mxPoint x="750" y="35" />
            </Array>
          </mxGeometry>
        </mxCell>
        <mxCell id="Ne4AK7aCDiOl1bR36kbK-23" style="edgeStyle=orthogonalEdgeStyle;rounded=0;orthogonalLoop=1;jettySize=auto;html=1;exitX=0.5;exitY=0;exitDx=0;exitDy=0;entryX=0.5;entryY=1;entryDx=0;entryDy=0;" edge="1" parent="1" source="Ne4AK7aCDiOl1bR36kbK-20" target="Ne4AK7aCDiOl1bR36kbK-22">
          <mxGeometry relative="1" as="geometry" />
        </mxCell>
        <mxCell id="Ne4AK7aCDiOl1bR36kbK-20" value="if Yes" style="rhombus;whiteSpace=wrap;html=1;" vertex="1" parent="1">
          <mxGeometry x="520" y="680" width="80" height="80" as="geometry" />
        </mxCell>
        <mxCell id="Ne4AK7aCDiOl1bR36kbK-24" style="edgeStyle=orthogonalEdgeStyle;rounded=0;orthogonalLoop=1;jettySize=auto;html=1;entryX=1;entryY=0.5;entryDx=0;entryDy=0;" edge="1" parent="1" source="Ne4AK7aCDiOl1bR36kbK-22" target="tjxY9i4PyZSD-RfpCPBU-1">
          <mxGeometry relative="1" as="geometry">
            <mxPoint x="560" y="450" as="targetPoint" />
          </mxGeometry>
        </mxCell>
        <mxCell id="Ne4AK7aCDiOl1bR36kbK-22" value="if No" style="rhombus;whiteSpace=wrap;html=1;" vertex="1" parent="1">
          <mxGeometry x="520" y="580" width="80" height="80" as="geometry" />
        </mxCell>
        <mxCell id="883NVLIcD5NL9LctwS62-2" style="edgeStyle=orthogonalEdgeStyle;rounded=0;orthogonalLoop=1;jettySize=auto;html=1;exitX=0.75;exitY=1;exitDx=0;exitDy=0;" edge="1" parent="1" source="tjxY9i4PyZSD-RfpCPBU-1" target="0yLy5xC8TKGSPIePNKLh-33">
          <mxGeometry relative="1" as="geometry" />
        </mxCell>
        <mxCell id="tjxY9i4PyZSD-RfpCPBU-1" value="read_menu" style="shape=process;whiteSpace=wrap;html=1;backgroundOutline=1;" vertex="1" parent="1">
          <mxGeometry x="250" y="590" width="120" height="60" as="geometry" />
        </mxCell>
        <mxCell id="883NVLIcD5NL9LctwS62-4" style="edgeStyle=orthogonalEdgeStyle;rounded=0;orthogonalLoop=1;jettySize=auto;html=1;exitX=0.5;exitY=1;exitDx=0;exitDy=0;entryX=0.5;entryY=0;entryDx=0;entryDy=0;" edge="1" parent="1" source="tjxY9i4PyZSD-RfpCPBU-2" target="883NVLIcD5NL9LctwS62-3">
          <mxGeometry relative="1" as="geometry" />
        </mxCell>
        <mxCell id="tjxY9i4PyZSD-RfpCPBU-2" value="cout &amp;gt;&amp;gt; cart[ ]" style="shape=parallelogram;perimeter=parallelogramPerimeter;whiteSpace=wrap;html=1;fixedSize=1;" vertex="1" parent="1">
          <mxGeometry x="635" y="1000" width="150" height="60" as="geometry" />
        </mxCell>
        <mxCell id="883NVLIcD5NL9LctwS62-7" style="edgeStyle=orthogonalEdgeStyle;rounded=0;orthogonalLoop=1;jettySize=auto;html=1;entryX=0.5;entryY=0;entryDx=0;entryDy=0;" edge="1" parent="1" source="883NVLIcD5NL9LctwS62-3" target="883NVLIcD5NL9LctwS62-6">
          <mxGeometry relative="1" as="geometry" />
        </mxCell>
        <mxCell id="883NVLIcD5NL9LctwS62-3" value="cout &amp;gt;&amp;gt; Confirm your order?" style="shape=parallelogram;perimeter=parallelogramPerimeter;whiteSpace=wrap;html=1;fixedSize=1;" vertex="1" parent="1">
          <mxGeometry x="635" y="1110" width="150" height="60" as="geometry" />
        </mxCell>
        <mxCell id="883NVLIcD5NL9LctwS62-6" value="cin &amp;gt;&amp;gt; confirmation" style="shape=parallelogram;perimeter=parallelogramPerimeter;whiteSpace=wrap;html=1;fixedSize=1;" vertex="1" parent="1">
          <mxGeometry x="635" y="1220" width="150" height="60" as="geometry" />
        </mxCell>
        <mxCell id="883NVLIcD5NL9LctwS62-9" value="if Yes" style="rhombus;whiteSpace=wrap;html=1;" vertex="1" parent="1">
          <mxGeometry x="530" y="1170" width="80" height="80" as="geometry" />
        </mxCell>
        <mxCell id="883NVLIcD5NL9LctwS62-10" value="if No" style="rhombus;whiteSpace=wrap;html=1;" vertex="1" parent="1">
          <mxGeometry x="440" y="1170" width="80" height="80" as="geometry" />
        </mxCell>
      </root>
    </mxGraphModel>
  </diagram>
  <diagram id="GBkLoGAktFVEf62E0aiL" name="Page-3">
    <mxGraphModel dx="997" dy="540" grid="1" gridSize="10" guides="1" tooltips="1" connect="1" arrows="1" fold="1" page="1" pageScale="1" pageWidth="850" pageHeight="1100" math="0" shadow="0">
      <root>
        <mxCell id="0" />
        <mxCell id="1" parent="0" />
        <mxCell id="kXBEFefe0FfmKnMsbVi6-1" style="edgeStyle=orthogonalEdgeStyle;rounded=0;orthogonalLoop=1;jettySize=auto;html=1;entryX=0.5;entryY=0;entryDx=0;entryDy=0;" edge="1" parent="1" source="kXBEFefe0FfmKnMsbVi6-2" target="kXBEFefe0FfmKnMsbVi6-4">
          <mxGeometry relative="1" as="geometry">
            <Array as="points">
              <mxPoint x="400" y="550" />
              <mxPoint x="248" y="550" />
            </Array>
          </mxGeometry>
        </mxCell>
        <mxCell id="kXBEFefe0FfmKnMsbVi6-2" value="display menu[i]" style="rounded=0;whiteSpace=wrap;html=1;" vertex="1" parent="1">
          <mxGeometry x="330" y="590" width="120" height="60" as="geometry" />
        </mxCell>
        <mxCell id="kXBEFefe0FfmKnMsbVi6-3" style="edgeStyle=orthogonalEdgeStyle;rounded=0;orthogonalLoop=1;jettySize=auto;html=1;exitX=1;exitY=0.5;exitDx=0;exitDy=0;entryX=0;entryY=0.5;entryDx=0;entryDy=0;" edge="1" parent="1" source="kXBEFefe0FfmKnMsbVi6-4" target="kXBEFefe0FfmKnMsbVi6-2">
          <mxGeometry relative="1" as="geometry" />
        </mxCell>
        <mxCell id="kXBEFefe0FfmKnMsbVi6-4" value="while i &amp;lt;= 20" style="rhombus;whiteSpace=wrap;html=1;" vertex="1" parent="1">
          <mxGeometry x="195" y="580" width="105" height="80" as="geometry" />
        </mxCell>
        <mxCell id="kXBEFefe0FfmKnMsbVi6-5" value="true" style="text;html=1;strokeColor=none;fillColor=none;align=center;verticalAlign=middle;whiteSpace=wrap;rounded=0;" vertex="1" parent="1">
          <mxGeometry x="280" y="590" width="60" height="30" as="geometry" />
        </mxCell>
      </root>
    </mxGraphModel>
  </diagram>
</mxfile>
